<svg width="317" height="71" xmlns="http://www.w3.org/2000/svg">
 <style type="text/css">.st0{fill:#E06CC7;}
	.st1{fill:#FFFFFF;}</style>

 <g>
  <title>background</title>
  <rect fill="none" id="canvas_background" height="402" width="582" y="-1" x="-1"/>
 </g>
 <g>
  <title>Layer 1</title>
  <path id="svg_1" d="m115.5,23.9c2,0 3.8,0.3 5.3,1c1.5,0.7 2.6,1.6 3.5,2.9c0.8,1.2 1.2,2.7 1.2,4.4c0,1.7 -0.4,3.1 -1.2,4.4c-0.8,1.2 -2,2.2 -3.5,2.9c-1.5,0.7 -3.3,1 -5.3,1l-3.9,0l0,5.9l-6.3,0l0,-22.5l10.2,0zm-0.4,11.6c1.3,0 2.3,-0.3 2.9,-0.8c0.7,-0.6 1,-1.4 1,-2.4c0,-1 -0.3,-1.9 -1,-2.4c-0.7,-0.6 -1.6,-0.9 -2.9,-0.9l-3.5,0l0,6.6l3.5,0l0,-0.1z" class="st0"/>
  <path id="svg_2" d="m136.9,46.6c-1.9,0 -3.5,-0.4 -5,-1.2c-1.5,-0.8 -2.7,-1.8 -3.5,-3.2c-0.8,-1.4 -1.2,-2.9 -1.2,-4.6c0,-1.7 0.4,-3.2 1.2,-4.6c0.9,-1.4 2,-2.4 3.5,-3.2c1.5,-0.8 3.2,-1.2 5.1,-1.2s3.6,0.4 5.1,1.2c1.5,0.7 2.7,1.8 3.5,3.2c0.8,1.3 1.2,2.9 1.2,4.6s-0.4,3.3 -1.2,4.6c-0.8,1.4 -2,2.4 -3.5,3.2c-1.6,0.8 -3.3,1.2 -5.2,1.2zm0,-4.8c1.1,0 1.9,-0.4 2.6,-1.1c0.7,-0.7 1,-1.8 1,-3.1c0,-1.3 -0.3,-2.3 -1,-3s-1.6,-1.1 -2.6,-1.1s-1.9,0.4 -2.6,1.1s-1,1.7 -1,3c0,1.3 0.3,2.3 1,3.1c0.7,0.7 1.5,1.1 2.6,1.1z" class="st0"/>
  <path id="svg_3" d="m177.8,29l-6.2,17.3l-5.9,0l-3.3,-9.4l-3.4,9.4l-5.9,0l-6.1,-17.3l5.8,0l3.6,10.5l3.6,-10.5l5.2,0l3.6,10.6l3.7,-10.6l5.3,0z" class="st0"/>
  <path id="svg_4" d="m196.9,37.7c0,0 0,0.5 -0.1,1.5l-12.6,0c0.3,0.9 0.7,1.6 1.5,2.1c0.7,0.5 1.7,0.7 2.8,0.7c0.8,0 1.5,-0.1 2.1,-0.4c0.6,-0.2 1.2,-0.6 1.9,-1.2l3.2,3.3c-1.7,1.9 -4.1,2.8 -7.4,2.8c-2,0 -3.8,-0.4 -5.3,-1.2c-1.5,-0.8 -2.7,-1.8 -3.6,-3.2c-0.8,-1.4 -1.2,-2.9 -1.2,-4.6c0,-1.7 0.4,-3.2 1.2,-4.6c0.8,-1.4 2,-2.4 3.4,-3.2c1.4,-0.8 3.1,-1.2 4.9,-1.2c1.7,0 3.3,0.4 4.7,1.1c1.4,0.7 2.5,1.7 3.3,3.1c0.8,1.5 1.2,3.1 1.2,5zm-9.2,-4.7c-0.9,0 -1.7,0.3 -2.4,0.8c-0.6,0.5 -1,1.3 -1.2,2.2l7.1,0c-0.2,-0.9 -0.6,-1.6 -1.2,-2.2c-0.6,-0.5 -1.4,-0.8 -2.3,-0.8z" class="st0"/>
  <path id="svg_5" d="m205.5,31.1c0.6,-0.8 1.4,-1.4 2.4,-1.8c1,-0.4 2.1,-0.6 3.4,-0.6l0,5.5c-0.6,-0.1 -1,-0.1 -1.4,-0.1c-1.3,0 -2.3,0.4 -3.1,1.1c-0.7,0.7 -1.1,1.8 -1.1,3.2l0,8l-6.1,0l0,-17.4l5.8,0l0,2.1l0.1,0z" class="st0"/>
  <path id="svg_6" d="m258.6,23.9l-7.3,22.4l-6.8,0l-4.3,-13.6l-4.5,13.6l-6.7,0l-7.3,-22.4l6.5,0l4.5,14.3l4.7,-14.3l5.8,0l4.5,14.4l4.7,-14.4l6.2,0z" class="st0"/>
  <path id="svg_7" d="m266.7,28.7c2.9,0 5.1,0.7 6.6,2c1.5,1.3 2.3,3.3 2.3,6l0,9.6l-5.7,0l0,-2.2c-0.9,1.7 -2.6,2.5 -5.1,2.5c-1.3,0 -2.5,-0.2 -3.5,-0.7c-1,-0.5 -1.7,-1.1 -2.2,-1.9c-0.5,-0.8 -0.7,-1.7 -0.7,-2.8c0,-1.6 0.6,-2.9 1.9,-3.8c1.3,-0.9 3.2,-1.4 5.8,-1.4l3.5,0c-0.1,-1.8 -1.3,-2.8 -3.7,-2.8c-0.8,0 -1.7,0.1 -2.5,0.4c-0.9,0.3 -1.6,0.6 -2.2,1.1l-2,-4.1c1,-0.6 2.1,-1.1 3.5,-1.5c1.2,-0.2 2.6,-0.4 4,-0.4zm-0.2,14.1c0.7,0 1.3,-0.2 1.9,-0.5c0.5,-0.3 0.9,-0.8 1.2,-1.5l0,-1.5l-2.6,0c-1.8,0 -2.7,0.6 -2.7,1.8c0,0.5 0.2,1 0.6,1.3s0.9,0.4 1.6,0.4z" class="st0"/>
  <path id="svg_8" d="m297.4,29l-7.2,17.3l-6.3,0l-7.1,-17.3l6.2,0l4.2,10.6l4.4,-10.6l5.8,0z" class="st0"/>
  <path id="svg_9" d="m316.7,29l-7.5,18c-0.9,2.1 -1.9,3.6 -3.2,4.5c-1.3,0.9 -2.8,1.3 -4.6,1.3c-0.9,0 -1.8,-0.1 -2.8,-0.4c-0.9,-0.3 -1.7,-0.7 -2.2,-1.1l2.1,-4.3c0.3,0.3 0.7,0.6 1.2,0.7c0.5,0.2 1,0.3 1.5,0.3c0.6,0 1,-0.1 1.4,-0.4c0.4,-0.2 0.7,-0.6 1,-1.1l-7.5,-17.5l6.2,0l4.3,10.6l4.3,-10.6l5.8,0z" class="st0"/>
  <path id="svg_10" d="m40.9,0.6c2,-0.8 4.2,-0.8 6.1,0l35.3,14.7c3,1.2 4.9,4.2 4.9,7.4l0,25.3c0,3.2 -1.9,6.1 -4.9,7.4l-35.2,14.6c-2,0.8 -4.2,0.8 -6.1,0l-35.4,-14.6c-3,-1.2 -4.9,-4.2 -4.9,-7.4l0,-25.3c0,-3.2 1.9,-6.1 4.9,-7.4l35.3,-14.7z" class="st0"/>
  <path id="svg_11" d="m31.2,27.4c1.4,0 2.6,0.2 3.6,0.7c1,0.4 1.8,1.1 2.3,1.9c0.5,0.8 0.8,1.8 0.8,3c0,1.1 -0.3,2.1 -0.8,3c-0.5,0.8 -1.3,1.5 -2.3,1.9c-1,0.4 -2.2,0.7 -3.6,0.7l-2.6,0l0,4l-4.3,0l0,-15.2l6.9,0zm-0.2,7.8c0.9,0 1.5,-0.2 2,-0.6c0.4,-0.4 0.7,-0.9 0.7,-1.6c0,-0.7 -0.2,-1.3 -0.7,-1.6c-0.4,-0.4 -1.1,-0.6 -2,-0.6l-2.4,0l0,4.4l2.4,0z" class="st1"/>
  <path id="svg_12" d="m63.6,27.4l-4.9,15.2l-4.6,0l-2.9,-9.2l-3,9.2l-4.6,0l-4.9,-15.2l4.4,0l3.1,9.7l3.2,-9.7l3.9,0l3.1,9.8l3.2,-9.8l4,0z" class="st1"/>
 </g>
</svg>